The KIller Inside Me (2010) (1080p) NL Subzzz  


 12 - April - 2011 - Netherlands 

Verenigde Staten / Zweden / Verenigd Koninkrijk / Canada
Misdaad / Drama
108 minuten

Geregisseerd door Michael Winterbottom
met Casey Affleck, Jessica Alba en Kate Hudson

Iedereen denkt dat Lou Ford (Casey Affleck) een goede man is. Hij is sheriff in een klein stadje in West-Texas en leidt een onopvallend leven, maar wat niemand weet is dat hij een psychopatische moordenaar is. Lou is een echte sociopaat en zorgt er steeds voor dat niemand zijn geheim ontdekt. Maar wanneer de bewijzen steeds vaker in zijn richting wijzen, wordt hij verplicht om nog meer moorden te plegen...

 
http://www.moviemeter.nl/film/60714

English

Storyline
Sadism and masochism beneath a veneer of revenge. Lou Ford is a mild-mannered sheriff's deputy in an Oklahoma oil town in the late 1940s. His boss sends him to roust a prostitute living in a rural house. She slaps him; he hits her, then, after daily sex for the next few weeks, he decides it's love. She's devoted to him and becomes his pawn in a revenge plot she thinks is to shakedown the son of Chester Conway, the town's wealthy king of construction. Lou has a different plan, and bodies pile up as murder leads to murder. The district attorney suspects Lou, and Conway may have an inkling, but Lou stays cool. Is love, or at least peace, in the cards?

 
http://www.imdb.com/title/tt0954947/
================================================== 

HD Inf0:







Met dank aan de originele poster
  Category : Video 
  Format : x264HD 
  Source : Retail 
  Subtitle : English subs Dutch subs (optional) optional
  audio : DTS 6ch 48Khz 1.54Mbps / AC3 6ch 48Khz 640Kbps
  resolution : 1920x814
  size : 9900 MB

  subs : Dutch Custom  
  Genre : Action Crime


HomepagE http://www.killerinsideme.com/  
 
  Weblink :  http://www.moviemeter.nl/film/60714
  Weblink :  http://www.imdb.com/title/tt0954947

TBS 

MEDIA INFO

General
Complete name                    : The KIller Inside Me (2010) (1080p) NL Subzzz\The Killer Inside Me (2010) 1080p\The.KIller.Inside.Me.2010.BluRay.1080p.DTS.X264_R_Knorloading.mkv
Format                           : Matroska
File size                        : 9.90 GiB
Duration                         : 1h 49mn
Overall bit rate                 : 13.0 Mbps
Encoded date                     : UTC 2011-03-27 19:54:36
Writing application              : mkvmerge v3.0.0 ('Hang up your Hang-Ups') built on Dec 12 2009 15:20:35
Writing library                  : libebml v0.7.9 + libmatroska v0.8.1

Video
ID                               : 1
Format                           : AVC
Format/Info                      : Advanced Video Codec
Format profile                   : High@L4.1
Format settings, CABAC           : Yes
Format settings, ReFrames        : 5 frames
Muxing mode                      : Container profile=Unknown@4.1
Codec ID                         : V_MPEG4/ISO/AVC
Duration                         : 1h 49mn
Bit rate                         : 10.8 Mbps
Width                            : 1 920 pixels
Height                           : 816 pixels
Display aspect ratio             : 2.35:1
Frame rate                       : 23.976 fps
Color space                      : YUV
Chroma subsampling               : 4:2:0
Bit depth                        : 8 bits
Scan type                        : Progressive
Bits/(Pixel*Frame)               : 0.288
Stream size                      : 8.06 GiB (81%)
Title                            : x264
Writing library                  : x264 core 104 r1688 0b36c6d
Encoding settings                : cabac=1 / ref=5 / deblock=1:0:0 / analyse=0x3:0x113 / me=umh / subme=7 / psy=1 / psy_rd=1.00:0.00 / mixed_ref=1 / me_range=16 / chroma_me=1 / trellis=1 / 8x8dct=1 / cqm=0 / deadzone=21,11 / fast_pskip=1 / chroma_qp_offset=-2 / threads=6 / sliced_threads=0 / nr=0 / decimate=1 / interlaced=0 / constrained_intra=0 / bframes=3 / b_pyramid=2 / b_adapt=1 / b_bias=0 / direct=1 / weightb=1 / open_gop=0 / weightp=2 / keyint=250 / keyint_min=23 / scenecut=40 / intra_refresh=0 / rc_lookahead=40 / rc=2pass / mbtree=1 / bitrate=10823 / ratetol=1.0 / qcomp=0.60 / qpmin=10 / qpmax=51 / qpstep=4 / cplxblur=20.0 / qblur=0.5 / ip_ratio=1.40 / aq=1:1.00
Language                         : English

Audio #1
ID                               : 2
Format                           : DTS
Format/Info                      : Digital Theater Systems
Codec ID                         : A_DTS
Duration                         : 1h 49mn
Bit rate mode                    : Constant
Bit rate                         : 1 510 Kbps
Channel(s)                       : 6 channels
Channel positions                : Front: L C R, Side: L R, LFE
Sampling rate                    : 48.0 KHz
Bit depth                        : 24 bits
Stream size                      : 1.15 GiB (12%)
Title                            : DTS
Language                         : English

Audio #2
ID                               : 3
Format                           : AC-3
Format/Info                      : Audio Coding 3
Mode extension                   : CM (complete main)
Codec ID                         : A_AC3
Duration                         : 1h 49mn
Bit rate mode                    : Constant
Bit rate                         : 640 Kbps
Channel(s)                       : 6 channels
Channel positions                : Front: L C R, Side: L R, LFE
Sampling rate                    : 48.0 KHz
Bit depth                        : 16 bits
Stream size                      : 500 MiB (5%)
Title                            : AC3
Language                         : English

Text #1
ID                               : 4
Format                           : UTF-8
Codec ID                         : S_TEXT/UTF8
Codec ID/Info                    : UTF-8 Plain Text
Language                         : Dutch

Text #2
ID                               : 5
Format                           : UTF-8
Codec ID                         : S_TEXT/UTF8
Codec ID/Info                    : UTF-8 Plain Text
Language                         : English

